<?xml version="1.0" encoding="utf-8"?>
<!-- Generator: Adobe Illustrator 15.0.2, SVG Export Plug-In . SVG Version: 6.00 Build 0)  -->
<!DOCTYPE svg PUBLIC "-//W3C//DTD SVG 1.0//EN" "http://www.w3.org/TR/2001/REC-SVG-20010904/DTD/svg10.dtd">
<svg version="1.0" id="logo-with-claim" xmlns="http://www.w3.org/2000/svg" xmlns:xlink="http://www.w3.org/1999/xlink" x="0px"
	 y="0px" width="400px" height="300px" viewBox="0 0 400 300" enable-background="new 0 0 400 300" xml:space="preserve">
<g id="omelet-logo-with-claim">
	<g id="logo">
		<g id="pan">
			<path fill="#002D54" d="M280.584,153.41c-0.918,1.013-32.449,18.141-57.971,30.481c9.602,3.854,18.718,8.118,27.097,12.665
				c19.631-10.421,43.415-24.884,43.133-25.087C304.79,158.54,300.93,143.519,280.584,153.41z M287.241,163.182
				c-3.744,2.385-7.474,3.228-8.332,1.879c-0.859-1.346,1.48-4.373,5.224-6.756c3.744-2.386,7.474-3.228,8.333-1.88
				C293.324,157.772,290.984,160.797,287.241,163.182z"/>
			<path fill="#002D54" d="M258.977,256.5c-20.411,0-46.57-4.79-73.658-13.286c-49.794-15.617-87.611-39.202-93.257-56.893
				c0.817,7.582,4.176,23.429,9.24,33.64c0.877,2.222,2.256,4.515,4.078,6.874c1.005,1.391,2.05,2.635,3.15,3.655
				c12.817,13.563,39.201,28.247,71.019,38.208c41.158,12.883,77.841,13.61,89.337,2.853c8.469-5.915,17.845-17.144,21.712-23.057
				c-5.296,5.136-16.16,8.006-31.619,8.006C258.978,256.5,258.978,256.5,258.977,256.5z"/>
			
				<ellipse transform="matrix(-0.5374 -0.8433 0.8433 -0.5374 303.6624 488.0548)" fill="#FFFFFF" cx="285.687" cy="160.744" rx="2.892" ry="8.036"/>
			<path fill="#002D54" d="M200.027,178.846c-24.239-7.604-48.596-11.791-68.584-11.791c-21.364,0-35.222,4.818-37.069,12.889
				c-1.295,5.659,3.287,13.154,12.794,21.31c12-9.939,47.421-3.127,87.07,9.284c39.797,12.457,70.957,26.563,76.93,42.206
				c11.644-1.478,18.777-5.241,20.054-10.82C294.697,226.74,256.435,196.539,200.027,178.846z"/>
			<path fill="#415B80" d="M194.238,204.654c-39.648-12.411-75.07-13.34-87.07-3.4c3.105,2.663,6.733,5.396,10.857,8.158
				c17.409,11.66,41.609,22.665,68.143,30.988c26.821,8.413,52.678,13.046,72.81,13.046c4.479,0,8.552-0.241,12.19-0.702
				C265.194,237.102,234.035,217.112,194.238,204.654z"/>
		</g>
		<g id="omelet">
			<g id="pancake">
				<path fill="#B65A00" d="M179.941,209.439c72.887,54.688,126.627-22.063,132.082-33.264
					c5.455-11.203-58.711,66.354-119.472-2.668c-61.551-69.921-64.707-71.084-70.161-59.884
					C116.936,124.826,107.054,154.75,179.941,209.439"/>
				<path fill="#ED7203" d="M179.941,204.744c72.887,54.688,127.023-18.023,132.478-29.226
					c5.455-11.203-44.448,29.972-119.063-19.229c-28.923-19.071-61.862-67.276-70.964-47.36
					C117.212,120.263,107.054,150.055,179.941,204.744"/>
			</g>
			<g id="text">
				<polygon id="e_1_" fill="#B65A00" points="226.543,179.365 207.863,210.485 217.907,216.724 231.564,219.134 231.625,213.51 
					217.907,208.287 221.402,203.515 234.448,205.387 237.244,200.614 225.538,196.235 229.153,191.015 240.854,192.291 
					244.067,185.463 				"/>
				<polygon id="t" fill="#B65A00" points="247.229,185.792 263.215,187.398 277.021,187.447 275.668,193.436 274.865,194.83 
					266.429,195.007 259.198,214.716 249.557,217.125 255.984,194.83 243.934,193.436 				"/>
				<polygon id="e" fill="#B65A00" points="178.917,152.18 164.054,175.879 176.105,189.94 180.926,185.521 172.39,175.879 
					174.9,173.687 182.934,179.496 185.746,175.478 178.917,167.445 180.926,163.025 191.275,173.687 196.994,165.838 				"/>
				<polygon id="l" fill="#B65A00" points="201.814,169.491 180.524,193.192 191.169,202.028 204.225,208.858 205.832,204.085 
					194.63,194.397 209.447,172.119 				"/>
				<polygon id="m" fill="#B65A00" points="142.079,157 152.523,142.761 158.147,133.521 163.37,138.745 160.557,149.993 
					171.001,146.376 174.617,149.993 159.754,174.496 152.523,169.273 159.754,157 155.335,157 154.532,151.198 145.292,163.651 
									"/>
				<path id="o" fill="#B65A00" d="M145.16,121.599l-9.498-4.581l-5.214,5.353l-1.062,7.558l-0.371,8.394l1.948,6.341l6.016,7.607
					l8.837-8.434l6.632-11.758L145.16,121.599z M140.896,138.51l-3.092,2.95l-2.104-2.661l-0.682-2.219l0.129-2.938l0.372-2.644
					l1.825-1.872l3.323,1.602l2.551,3.667L140.896,138.51z"/>
			</g>
		</g>
	</g>
	<g id="claim">
		<path fill="#4D4D4D" d="M46.191,84.459l-13.069,5.93l-2.56-9.011l-6.636-20.55l3.322-1.507l6.167,20.447l2.022,6.198l9.922-4.502
			l0.29,0.29L46.191,84.459z"/>
		<path fill="#4D4D4D" d="M59.381,73.255c-0.882,3.833-2.498,6.562-4.846,8.188L54,81.656c-3.774,1.162-6.557-0.501-8.348-4.989
			c-1.044-2.615-1.565-5.129-1.563-7.542c0.001-2.412,0.51-4.527,1.524-6.345c1.014-1.817,2.491-3.147,4.429-3.99l0.419-0.116
			c2.68-0.621,4.472,0.197,5.373,2.456c1.388,3.477-1.061,7.917-7.346,13.32c0.736,1.843,1.502,3.096,2.301,3.759
			c0.798,0.663,1.673,0.805,2.625,0.425c0.981-0.392,1.786-1.16,2.413-2.307c0.628-1.146,1.034-2.48,1.22-4.001l0.553-0.169
			L59.381,73.255z M47.247,65.255c-0.454,1.887-0.327,4.102,0.378,6.646c4.536-3.74,6.307-6.858,5.311-9.355
			c-0.486-1.218-1.414-1.555-2.78-1.009C48.669,62.129,47.7,63.369,47.247,65.255z"/>
		<path fill="#4D4D4D" d="M68.121,70.785c0.349,0.997,0.96,1.342,1.837,1.036c1.087-0.38,2.024-2.013,2.813-4.899l0.56-0.145
			l1.533,1.041c-1.096,3.265-2.437,5.733-4.021,7.406l-0.543,0.19c-1.181,0.209-2.202,0.101-3.064-0.327
			c-0.861-0.428-1.467-1.19-1.817-2.289l-0.208-0.741l-2.234-12.643l-0.453-1.875l-2.945,1.029l-0.306-0.147l-0.486-2.118
			l3.217-1.125l-1.167-5.083l2.71-2.575l0.441,0.1l1.142,6.466l5.573-1.949l0.398,0.268l0.439,1.982l-5.981,2.091l2.367,13.461
			L68.121,70.785z"/>
		<path fill="#4D4D4D" d="M77.783,49.856l-1.7,0.834l-0.375-0.234l-1.361-8.678l2.645-1.03l0.27,0.218L77.783,49.856z"/>
		<path fill="#4D4D4D" d="M94.131,45.792l-0.088,3.415l-0.502,0.34c-1.583-1.018-3.005-1.35-4.268-0.995
			c-0.924,0.259-1.625,0.814-2.101,1.662c-0.477,0.849-0.598,1.688-0.364,2.52c0.19,0.678,0.586,1.199,1.187,1.562
			c0.601,0.363,1.513,0.771,2.737,1.225c1.593,0.583,2.851,1.186,3.773,1.807c0.922,0.622,1.57,1.595,1.942,2.919
			c0.346,1.233,0.323,2.452-0.069,3.659s-1.106,2.272-2.144,3.195s-2.326,1.601-3.866,2.033c-1.663,0.234-3.35,0.144-5.063-0.273
			l-0.044-3.528l0.444-0.374c1.787,1.393,3.512,1.855,5.176,1.388c1.047-0.294,1.815-0.875,2.302-1.744
			c0.487-0.868,0.61-1.733,0.368-2.596c-0.225-0.801-0.669-1.407-1.333-1.819s-1.62-0.824-2.866-1.239
			c-1.554-0.561-2.78-1.139-3.678-1.734c-0.899-0.595-1.525-1.524-1.88-2.788c-0.355-1.263-0.309-2.489,0.138-3.678
			c0.447-1.189,1.201-2.232,2.262-3.128c1.061-0.896,2.305-1.528,3.73-1.896C91.318,45.602,92.721,45.623,94.131,45.792z"/>
		<path fill="#4D4D4D" d="M118.149,40.551l-0.333,2.972l-0.72,0.305c-1.24-0.875-2.407-1.193-3.5-0.955
			c-1.876,0.41-3.146,1.72-3.809,3.928c-0.664,2.209-0.623,5.018,0.122,8.424c0.424,1.939,0.945,3.274,1.564,4.007
			c0.619,0.733,1.413,0.993,2.382,0.781c1.719-0.376,3.002-2.146,3.85-5.313l0.516-0.113l1.474,1.348
			c-0.607,1.869-1.342,3.34-2.204,4.413c-0.863,1.073-1.953,1.967-3.271,2.681l-0.563,0.123c-1.882,0.083-3.358-0.338-4.429-1.268
			c-1.071-0.928-1.894-2.706-2.468-5.332c-0.916-4.189-0.753-7.828,0.488-10.917c1.241-3.088,3.674-5.029,7.301-5.821l3.206,0.281
			L118.149,40.551z"/>
		<path fill="#4D4D4D" d="M137.297,43.026c0.496,2.903,0.524,5.543,0.087,7.923c-0.438,2.38-1.325,4.357-2.663,5.933
			c-1.338,1.576-3.063,2.642-5.176,3.197l-0.434,0.025c-1.857-0.041-3.319-0.569-4.386-1.588c-1.067-1.019-1.794-2.664-2.182-4.935
			c-0.485-2.839-0.492-5.443-0.02-7.812c0.472-2.37,1.394-4.336,2.766-5.902c1.372-1.565,3.104-2.591,5.196-3.079l0.379-0.064
			C134.431,36.699,136.576,38.8,137.297,43.026z M126,43.885c-0.764,2.37-0.831,5.401-0.2,9.091c0.28,1.641,0.704,2.794,1.272,3.459
			c0.568,0.667,1.373,0.91,2.414,0.732c2.113-0.361,3.549-1.742,4.308-4.145c0.758-2.401,0.82-5.464,0.184-9.186
			c-0.275-1.609-0.694-2.73-1.256-3.365c-0.563-0.634-1.349-0.865-2.358-0.693C128.218,40.146,126.765,41.514,126,43.885z"/>
		<path fill="#4D4D4D" d="M157.247,40.56c0.348,2.924,0.242,5.563-0.315,7.917c-0.559,2.355-1.545,4.285-2.961,5.79
			c-1.416,1.506-3.193,2.482-5.332,2.93l-0.435,0.003c-1.853-0.135-3.286-0.737-4.3-1.809c-1.014-1.071-1.656-2.751-1.928-5.04
			c-0.34-2.86-0.214-5.461,0.377-7.803c0.592-2.342,1.612-4.259,3.062-5.753c1.449-1.494,3.231-2.431,5.346-2.811l0.381-0.045
			C154.705,34.094,156.74,36.302,157.247,40.56z M145.921,40.843c-0.883,2.329-1.104,5.352-0.662,9.07
			c0.196,1.652,0.561,2.826,1.095,3.519c0.533,0.694,1.325,0.979,2.373,0.854c2.128-0.253,3.633-1.56,4.513-3.92
			c0.879-2.36,1.096-5.415,0.65-9.165c-0.193-1.621-0.554-2.762-1.084-3.424c-0.53-0.662-1.303-0.933-2.32-0.812
			C148.325,37.222,146.804,38.514,145.921,40.843z"/>
		<path fill="#4D4D4D" d="M173.639,45.713c2.332,3.312,4.349,5.988,6.052,8.025l-0.17,0.348l-2.932,0.767l-0.348-0.169
			c-1.718-2.261-3.635-5.119-5.751-8.574l0.056-0.629c4.168-2.964,6.178-5.611,6.026-7.943c-0.07-1.085-0.489-1.604-1.255-1.554
			c-1.054,0.068-2.385,1.302-3.993,3.698c-1.608,2.397-3.381,5.968-5.318,10.711l0.142,4.416l-3.619,0.571l2.195-29.195
			l-0.158-4.655l3.619-0.572l-1.684,22.236l0.479-0.031c1.638-2.927,3.058-5.256,4.261-6.986c1.203-1.729,2.477-3.086,3.825-4.072
			l0.715-0.094c2.653,0.374,4.064,1.853,4.232,4.439C180.213,39.547,178.088,42.635,173.639,45.713z"/>
		<path fill="#4D4D4D" d="M203.771,32.852l-1.062,3.247l-0.579,0.183c-1.225-1.428-2.493-2.153-3.805-2.174
			c-0.96-0.016-1.79,0.315-2.489,0.992c-0.699,0.677-1.056,1.447-1.069,2.311c-0.012,0.704,0.219,1.316,0.69,1.835
			c0.471,0.52,1.229,1.172,2.272,1.957c1.359,1.014,2.393,1.952,3.099,2.811c0.706,0.86,1.048,1.978,1.025,3.353
			c-0.021,1.28-0.393,2.442-1.113,3.486c-0.721,1.044-1.71,1.861-2.968,2.448c-1.258,0.587-2.687,0.869-4.287,0.843
			c-1.66-0.251-3.251-0.821-4.772-1.709l0.967-3.393l0.532-0.231c1.314,1.846,2.835,2.783,4.563,2.811
			c1.087,0.018,1.989-0.32,2.705-1.012c0.715-0.692,1.08-1.486,1.095-2.383c0.014-0.832-0.239-1.54-0.758-2.125
			s-1.316-1.253-2.392-2.007c-1.328-0.982-2.338-1.886-3.028-2.713c-0.691-0.828-1.025-1.896-1.004-3.209
			c0.021-1.312,0.416-2.473,1.185-3.485c0.768-1.011,1.789-1.795,3.063-2.351c1.273-0.555,2.646-0.805,4.117-0.749
			C201.129,31.865,202.467,32.287,203.771,32.852z"/>
		<path fill="#4D4D4D" d="M222.499,39.501c-0.131,2.941-0.663,5.528-1.596,7.76c-0.933,2.233-2.22,3.978-3.861,5.233
			s-3.554,1.931-5.736,2.026l-0.429-0.067c-1.807-0.434-3.123-1.261-3.949-2.483c-0.827-1.222-1.188-2.984-1.086-5.286
			c0.129-2.877,0.675-5.423,1.639-7.639c0.964-2.215,2.282-3.941,3.955-5.181c1.672-1.238,3.583-1.874,5.73-1.906l0.384,0.017
			C221.04,32.709,222.69,35.217,222.499,39.501z M211.277,37.943c-1.249,2.154-1.957,5.102-2.124,8.842
			c-0.074,1.663,0.095,2.88,0.51,3.65c0.413,0.771,1.148,1.181,2.203,1.228c2.142,0.096,3.838-0.949,5.089-3.136
			c1.251-2.186,1.96-5.165,2.129-8.938c0.072-1.63-0.099-2.815-0.515-3.554c-0.415-0.739-1.135-1.132-2.157-1.177
			C214.238,34.76,212.526,35.789,211.277,37.943z"/>
		<path fill="#4D4D4D" d="M256.038,37.119c0.602,0.793,0.824,1.729,0.67,2.806l-0.119,0.614l-3.355,12.033l-0.857,4.975
			l-3.711-0.085l4.438-16.016l0.119-0.614c0.176-0.978-0.086-1.507-0.785-1.587c-0.923-0.105-2.378,0.936-4.367,3.125
			s-4.283,5.356-6.883,9.504l-0.734,4.313l-3.71-0.085l4.485-16.01l0.119-0.615c0.112-0.985-0.165-1.517-0.833-1.593
			c-0.922-0.105-2.35,0.908-4.284,3.038c-1.935,2.13-4.18,5.223-6.736,9.279l-0.772,4.646l-3.663-0.08l4.458-17.028l0.767-4.599
			l3.567,0.069l-2.752,10.556l0.429,0.049c1.938-2.581,3.64-4.649,5.105-6.205c1.466-1.555,2.942-2.78,4.43-3.673l0.524,0.06
			c1.083,0.382,1.926,0.969,2.528,1.762c0.602,0.793,0.824,1.729,0.67,2.806l-0.118,0.614l-1.646,5.948l0.429,0.049
			c1.87-2.556,3.554-4.61,5.052-6.162c1.498-1.552,2.992-2.791,4.482-3.715l0.525,0.06
			C254.593,35.738,255.436,36.325,256.038,37.119z"/>
		<path fill="#4D4D4D" d="M273.008,55.876c-2.786,2.776-5.605,4.228-8.459,4.355l-0.566-0.104c-3.814-1.024-5.286-3.912-4.415-8.666
			c0.507-2.77,1.403-5.175,2.688-7.218c1.284-2.042,2.84-3.562,4.666-4.562c1.825-1,3.783-1.34,5.872-1.023l0.417,0.125
			c2.6,0.899,3.682,2.546,3.243,4.938c-0.675,3.683-5.11,6.14-13.306,7.371c-0.357,1.952-0.375,3.42-0.051,4.407
			c0.323,0.986,0.988,1.572,1.996,1.756c1.038,0.19,2.128-0.032,3.27-0.669c1.142-0.637,2.195-1.55,3.162-2.739l0.558,0.151
			L273.008,55.876z M266.989,42.647c-1.388,1.356-2.459,3.299-3.215,5.828c5.83-0.753,8.988-2.453,9.473-5.097
			c0.236-1.29-0.369-2.068-1.817-2.333C269.855,40.757,268.376,41.291,266.989,42.647z"/>
		<path fill="#4D4D4D" d="M288.507,60.029c-0.254,1.025,0.069,1.649,0.971,1.872c1.118,0.277,2.796-0.577,5.034-2.561l0.548,0.185
			l0.714,1.709c-2.703,2.133-5.177,3.466-7.418,3.999l-0.559-0.138c-1.104-0.471-1.898-1.121-2.386-1.95
			c-0.487-0.829-0.577-1.799-0.269-2.91l0.231-0.734l5.048-11.805l0.648-1.817l-3.029-0.75l-0.175-0.291l0.752-2.039l3.308,0.819
			l1.806-4.894l3.677-0.672l0.315,0.325l-2.582,6.037l5.73,1.418l0.188,0.442l-0.718,1.899l-6.15-1.522l-5.384,12.563
			L288.507,60.029z"/>
		<path fill="#4D4D4D" d="M311.326,65.661c-3.057,2.475-6.011,3.629-8.862,3.462l-0.553-0.162c-3.688-1.411-4.855-4.435-3.501-9.073
			c0.79-2.703,1.929-5.004,3.417-6.903c1.487-1.898,3.191-3.251,5.11-4.058c1.919-0.806,3.901-0.943,5.947-0.413l0.4,0.167
			c2.494,1.162,3.4,2.911,2.719,5.245c-1.05,3.594-5.714,5.582-13.993,5.964c-0.557,1.905-0.725,3.363-0.504,4.378
			c0.22,1.015,0.821,1.666,1.805,1.953c1.014,0.296,2.121,0.187,3.322-0.33c1.2-0.516,2.342-1.316,3.426-2.399l0.54,0.208
			L311.326,65.661z M306.699,51.883c-1.52,1.207-2.784,3.029-3.797,5.467c5.878-0.15,9.193-1.515,9.947-4.095
			c0.368-1.259-0.155-2.096-1.567-2.508C309.746,50.297,308.219,50.676,306.699,51.883z"/>
		<path fill="#4D4D4D" d="M332.263,56.222l-2.004,2.767l-0.606-0.003c-0.729-1.734-1.716-2.813-2.958-3.234
			c-0.909-0.309-1.8-0.247-2.673,0.183c-0.873,0.431-1.447,1.055-1.725,1.873c-0.227,0.667-0.195,1.32,0.096,1.959
			c0.289,0.639,0.812,1.492,1.564,2.559c0.983,1.381,1.681,2.59,2.09,3.624c0.409,1.035,0.393,2.204-0.049,3.506
			c-0.412,1.212-1.121,2.205-2.126,2.979c-1.007,0.773-2.198,1.248-3.575,1.422s-2.823,0.005-4.339-0.509
			c-1.504-0.747-2.844-1.776-4.021-3.088l1.959-2.934l0.577-0.058c0.687,2.159,1.848,3.516,3.484,4.072
			c1.029,0.35,1.991,0.304,2.885-0.136c0.893-0.44,1.483-1.084,1.771-1.934c0.267-0.788,0.243-1.539-0.071-2.254
			c-0.315-0.715-0.87-1.596-1.663-2.643c-0.965-1.341-1.649-2.511-2.053-3.51c-0.405-0.999-0.396-2.119,0.025-3.362
			c0.422-1.242,1.152-2.227,2.194-2.956c1.041-0.728,2.252-1.162,3.635-1.301c1.382-0.139,2.765,0.043,4.148,0.546
			C330.051,54.475,331.194,55.285,332.263,56.222z"/>
		<path fill="#4D4D4D" d="M333.945,74.209c-0.379,0.986-0.136,1.645,0.73,1.978c1.076,0.414,2.847-0.225,5.314-1.917l0.521,0.251
			l0.496,1.785c-2.947,1.781-5.566,2.796-7.856,3.047l-0.538-0.207c-1.036-0.604-1.745-1.348-2.125-2.231
			c-0.38-0.883-0.349-1.857,0.095-2.92l0.32-0.7l6.474-11.087l0.868-1.723l-2.912-1.12l-0.138-0.31l0.999-1.93l3.182,1.223
			l2.397-4.632l3.732-0.211l0.272,0.362l-3.312,5.669l5.511,2.119l0.131,0.462l-0.947,1.795l-5.914-2.273l-6.901,11.797
			L333.945,74.209z"/>
		<path fill="#4D4D4D" d="M361.757,68.157l-2.217,2.599l-0.605-0.052c-0.589-1.787-1.486-2.94-2.69-3.459
			c-0.882-0.38-1.775-0.39-2.679-0.031c-0.905,0.36-1.527,0.937-1.869,1.73c-0.278,0.646-0.299,1.3-0.061,1.96
			c0.238,0.66,0.69,1.552,1.356,2.675c0.87,1.456,1.469,2.716,1.795,3.779c0.325,1.064,0.216,2.228-0.328,3.491
			c-0.507,1.176-1.293,2.109-2.356,2.8c-1.064,0.691-2.29,1.069-3.677,1.133c-1.387,0.064-2.815-0.22-4.284-0.853
			c-1.439-0.865-2.693-1.997-3.763-3.398l2.187-2.769l0.58-0.011c0.512,2.207,1.562,3.652,3.148,4.336
			c0.999,0.43,1.962,0.462,2.887,0.094c0.925-0.368,1.565-0.963,1.92-1.786c0.329-0.764,0.365-1.515,0.108-2.253
			s-0.74-1.66-1.447-2.767c-0.854-1.414-1.444-2.634-1.768-3.662c-0.323-1.028-0.226-2.144,0.293-3.35
			c0.52-1.205,1.327-2.128,2.423-2.771c1.096-0.643,2.338-0.979,3.727-1.007c1.389-0.029,2.753,0.263,4.093,0.875
			C359.69,66.239,360.767,67.138,361.757,68.157z"/>
		<path fill="#4D4D4D" d="M361.526,87.482c0.167,0.469,0.113,0.993-0.16,1.571c-0.288,0.607-0.694,1.017-1.22,1.228
			s-1.092,0.173-1.698-0.115c-0.579-0.274-0.945-0.66-1.099-1.158c-0.153-0.498-0.093-1.035,0.182-1.614
			c0.273-0.578,0.67-0.966,1.188-1.163c0.519-0.197,1.081-0.151,1.688,0.137C360.986,86.642,361.358,87.014,361.526,87.482z
			 M364.987,81.527l-2.098-0.729l-0.098-0.578l11.079-17.43l0.575-0.206l2.577,1.063l0.099,0.578L364.987,81.527z"/>
	</g>
</g>
</svg>
