<?xml version="1.0" encoding="utf-8"?>
<!-- Generator: Adobe Illustrator 15.0.2, SVG Export Plug-In . SVG Version: 6.00 Build 0)  -->
<!DOCTYPE svg PUBLIC "-//W3C//DTD SVG 1.0//EN" "http://www.w3.org/TR/2001/REC-SVG-20010904/DTD/svg10.dtd">
<svg version="1.0" id="logo" xmlns="http://www.w3.org/2000/svg" xmlns:xlink="http://www.w3.org/1999/xlink" x="0px" y="0px"
	 width="400px" height="300px" viewBox="0 0 400 300" enable-background="new 0 0 400 300" xml:space="preserve">
<g id="omelet-logo">
	<g id="pan_1_">
		<path fill="#002D54" d="M332.732,77.826c-1.561,1.721-55.118,30.813-98.472,51.777c16.31,6.545,31.796,13.787,46.028,21.513
			c33.348-17.703,73.747-42.269,73.269-42.616C373.849,86.539,367.292,61.024,332.732,77.826z M344.04,94.425
			c-6.359,4.05-12.695,5.48-14.153,3.192c-1.458-2.288,2.516-7.428,8.875-11.478c6.358-4.052,12.695-5.481,14.153-3.192
			C354.373,85.234,350.398,90.374,344.04,94.425z"/>
		<path fill="#002D54" d="M296.029,252c-34.671,0-79.106-7.666-125.119-22.098C86.328,203.373,22.091,163.543,12.5,133.496
			c1.389,12.874,7.094,39.913,15.696,57.257c1.489,3.776,3.83,7.728,6.926,11.735c1.708,2.362,3.483,4.508,5.351,6.241
			c21.773,23.035,66.59,47.994,120.637,64.913c69.913,21.884,132.224,23.129,151.751,4.854
			c14.386-10.049,30.313-29.587,36.881-39.63c-8.996,8.725-27.449,13.133-53.71,13.133C296.03,252,296.031,252,296.029,252z"/>
		
			<ellipse transform="matrix(-0.5373 -0.8434 0.8434 -0.5373 448.6769 426.7303)" fill="#FFFFFF" cx="341.401" cy="90.282" rx="4.912" ry="13.652"/>
		<path fill="#002D54" d="M195.895,121.031c-41.173-12.914-82.548-20.027-116.501-20.027c-36.29,0-59.829,8.185-62.967,21.894
			c-2.2,9.612,5.583,22.347,21.733,36.196c20.383-16.882,80.553-5.311,147.901,15.771c67.601,21.162,120.531,45.124,130.676,71.694
			c19.778-2.509,31.896-8.902,34.066-18.381C356.705,202.387,291.711,151.085,195.895,121.031z"/>
		<path fill="#415B80" d="M186.06,164.871c-67.349-21.081-127.519-22.659-147.901-5.777c5.275,4.524,11.438,9.167,18.443,13.858
			c29.572,19.808,70.679,38.502,115.75,52.638c45.56,14.291,89.483,22.161,123.678,22.162c7.608,0,14.526-0.409,20.707-1.193
			C306.591,219.988,253.661,186.032,186.06,164.871z"/>
	</g>
	<g id="omelet_1_">
		<g id="pancake_1_">
			<path fill="#B65A00" d="M161.776,187.552c123.809,92.896,215.095-37.475,224.361-56.503c9.266-19.029-99.73,112.713-202.94-4.531
				C78.642,7.747,73.283,5.77,64.018,24.798C54.751,43.827,37.966,94.655,161.776,187.552"/>
			<path fill="#ED7203" d="M161.776,179.576c123.809,92.896,215.767-30.614,225.033-49.643
				c9.267-19.028-75.501,50.912-202.247-32.664C135.431,64.874,79.479-17.009,64.018,16.822
				C55.22,36.073,37.966,86.68,161.776,179.576"/>
		</g>
		<g id="text_1_">
			<polygon id="e_3_" fill="#B65A00" points="240.935,136.466 209.204,189.33 226.265,199.925 249.465,204.021 249.568,194.467 
				226.265,185.596 232.202,177.489 254.363,180.67 259.111,172.563 239.229,165.126 245.369,156.255 265.245,158.426 
				270.703,146.825 			"/>
			<polygon id="t_1_" fill="#B65A00" points="276.074,147.385 303.229,150.113 326.679,150.197 324.381,160.37 323.017,162.738 
				308.688,163.038 296.404,196.514 280.028,200.608 290.945,162.738 270.476,160.37 			"/>
			<polygon id="e_2_" fill="#B65A00" points="160.036,90.29 134.789,130.548 155.26,154.432 163.448,146.925 148.948,130.548 
				153.212,126.822 166.859,136.69 171.636,129.866 160.036,116.219 163.448,108.713 181.027,126.822 190.741,113.49 			"/>
			<polygon id="l_1_" fill="#B65A00" points="198.93,119.695 162.765,159.954 180.848,174.966 203.024,186.566 205.754,178.458 
				186.726,162 211.896,124.157 			"/>
			<polygon id="m_1_" fill="#B65A00" points="97.46,98.478 115.202,74.291 124.755,58.597 133.626,67.467 128.849,86.573 
				146.59,80.432 152.731,86.573 127.484,128.197 115.202,119.326 127.484,98.478 119.978,98.478 118.614,88.621 102.919,109.774 
							"/>
			<path id="o_1_" fill="#B65A00" d="M102.694,38.344l-16.133-7.78l-8.859,9.092l-1.803,12.838L75.27,66.751l3.309,10.772
				l10.219,12.922l15.012-14.329l11.266-19.973L102.694,38.344z M95.451,67.069l-5.253,5.013l-3.574-4.52l-1.158-3.77l0.22-4.988
				l0.631-4.492l3.1-3.181l5.645,2.722l4.333,6.229L95.451,67.069z"/>
		</g>
	</g>
</g>
</svg>
